<mxfile host="Electron" agent="Mozilla/5.0 (Windows NT 10.0; Win64; x64) AppleWebKit/537.36 (KHTML, like Gecko) draw.io/28.1.2 Chrome/138.0.7204.243 Electron/37.4.0 Safari/537.36" version="28.1.2">
  <diagram name="Page-1" id="Q197GKWc-s8gdPYqF5po">
    <mxGraphModel dx="1042" dy="634" grid="1" gridSize="10" guides="1" tooltips="1" connect="1" arrows="1" fold="1" page="1" pageScale="1" pageWidth="850" pageHeight="1100" math="0" shadow="0">
      <root>
        <mxCell id="0" />
        <mxCell id="1" parent="0" />
        <mxCell id="qqAcoclm-rAN7GL4KuNu-3" value="" style="rounded=0;whiteSpace=wrap;html=1;strokeColor=#1A1A1A;dashed=1;fillColor=default;fillStyle=hatch;dashPattern=8 8;" parent="1" vertex="1">
          <mxGeometry x="70" y="130" width="130" height="670" as="geometry" />
        </mxCell>
        <mxCell id="qqAcoclm-rAN7GL4KuNu-4" value="&lt;h2&gt;&lt;font style=&quot;color: rgb(26, 26, 26);&quot;&gt;Source&lt;/font&gt;&lt;/h2&gt;" style="text;html=1;align=center;verticalAlign=middle;whiteSpace=wrap;rounded=0;" parent="1" vertex="1">
          <mxGeometry x="100" y="95" width="80" height="50" as="geometry" />
        </mxCell>
        <mxCell id="qqAcoclm-rAN7GL4KuNu-5" value="" style="rounded=0;whiteSpace=wrap;html=1;strokeColor=#1A1A1A;dashed=1;dashPattern=8 8;fillStyle=hatch;" parent="1" vertex="1">
          <mxGeometry x="240" y="130" width="440" height="670" as="geometry" />
        </mxCell>
        <mxCell id="qqAcoclm-rAN7GL4KuNu-6" value="" style="rounded=0;whiteSpace=wrap;html=1;strokeColor=#1A1A1A;dashed=1;dashPattern=8 8;fillStyle=hatch;" parent="1" vertex="1">
          <mxGeometry x="740" y="130" width="150" height="670" as="geometry" />
        </mxCell>
        <mxCell id="qqAcoclm-rAN7GL4KuNu-9" value="&lt;h2&gt;&lt;font style=&quot;color: rgb(26, 26, 26);&quot;&gt;Consume&lt;/font&gt;&lt;/h2&gt;&lt;div&gt;&lt;font style=&quot;color: rgb(26, 26, 26);&quot;&gt;&lt;br&gt;&lt;/font&gt;&lt;/div&gt;" style="text;html=1;align=center;verticalAlign=middle;whiteSpace=wrap;rounded=0;" parent="1" vertex="1">
          <mxGeometry x="765" y="95" width="100" height="60" as="geometry" />
        </mxCell>
        <mxCell id="qqAcoclm-rAN7GL4KuNu-10" value="&lt;h2&gt;&lt;font color=&quot;#1a1a1a&quot;&gt;Data warehouse&lt;/font&gt;&lt;/h2&gt;" style="text;html=1;align=center;verticalAlign=middle;whiteSpace=wrap;rounded=0;" parent="1" vertex="1">
          <mxGeometry x="400" y="90" width="170" height="60" as="geometry" />
        </mxCell>
        <mxCell id="qqAcoclm-rAN7GL4KuNu-11" value="" style="rounded=0;whiteSpace=wrap;html=1;fillColor=none;strokeColor=#B46504;" parent="1" vertex="1">
          <mxGeometry x="280" y="180" width="110" height="600" as="geometry" />
        </mxCell>
        <mxCell id="qqAcoclm-rAN7GL4KuNu-13" value="Bronze Layer" style="text;html=1;align=center;verticalAlign=middle;whiteSpace=wrap;rounded=0;fillColor=#fad7ac;strokeColor=#b46504;" parent="1" vertex="1">
          <mxGeometry x="290" y="140" width="90" height="30" as="geometry" />
        </mxCell>
        <mxCell id="qqAcoclm-rAN7GL4KuNu-14" value="SilverLayer" style="text;html=1;align=center;verticalAlign=middle;whiteSpace=wrap;rounded=0;fillColor=#f5f5f5;gradientColor=#b3b3b3;strokeColor=#666666;" parent="1" vertex="1">
          <mxGeometry x="435" y="140" width="90" height="30" as="geometry" />
        </mxCell>
        <mxCell id="qqAcoclm-rAN7GL4KuNu-15" value="Gold Layer" style="text;html=1;align=center;verticalAlign=middle;whiteSpace=wrap;rounded=0;fillColor=#fff2cc;gradientColor=#ffd966;strokeColor=#d6b656;" parent="1" vertex="1">
          <mxGeometry x="580" y="140" width="90" height="30" as="geometry" />
        </mxCell>
        <mxCell id="qqAcoclm-rAN7GL4KuNu-16" value="" style="rounded=0;whiteSpace=wrap;html=1;fillColor=none;gradientColor=#b3b3b3;strokeColor=#666666;" parent="1" vertex="1">
          <mxGeometry x="430" y="180" width="110" height="600" as="geometry" />
        </mxCell>
        <mxCell id="qqAcoclm-rAN7GL4KuNu-17" value="" style="rounded=0;whiteSpace=wrap;html=1;fillColor=none;gradientColor=#ffd966;strokeColor=#d6b656;" parent="1" vertex="1">
          <mxGeometry x="570" y="180" width="110" height="600" as="geometry" />
        </mxCell>
        <mxCell id="qqAcoclm-rAN7GL4KuNu-18" value="" style="image;aspect=fixed;html=1;points=[];align=center;fontSize=12;image=img/lib/azure2/general/Folder_Blank.svg;" parent="1" vertex="1">
          <mxGeometry x="105.5" y="170" width="49.29" height="40" as="geometry" />
        </mxCell>
        <mxCell id="qqAcoclm-rAN7GL4KuNu-20" value="" style="image;aspect=fixed;html=1;points=[];align=center;fontSize=12;image=img/lib/azure2/general/File.svg;" parent="1" vertex="1">
          <mxGeometry x="138.56" y="190" width="21.44" height="26.42" as="geometry" />
        </mxCell>
        <mxCell id="qqAcoclm-rAN7GL4KuNu-21" value="&lt;b&gt;CRM&lt;/b&gt;" style="text;html=1;align=center;verticalAlign=middle;whiteSpace=wrap;rounded=0;" parent="1" vertex="1">
          <mxGeometry x="99.99999999999997" y="210" width="60" height="30" as="geometry" />
        </mxCell>
        <mxCell id="qqAcoclm-rAN7GL4KuNu-22" value="" style="image;aspect=fixed;html=1;points=[];align=center;fontSize=12;image=img/lib/azure2/general/Folder_Blank.svg;" parent="1" vertex="1">
          <mxGeometry x="105.64000000000003" y="270" width="49.29" height="40" as="geometry" />
        </mxCell>
        <mxCell id="qqAcoclm-rAN7GL4KuNu-23" value="&lt;b&gt;CRM&lt;/b&gt;" style="text;html=1;align=center;verticalAlign=middle;whiteSpace=wrap;rounded=0;" parent="1" vertex="1">
          <mxGeometry x="100.14" y="310" width="60" height="30" as="geometry" />
        </mxCell>
        <mxCell id="qqAcoclm-rAN7GL4KuNu-24" value="" style="image;aspect=fixed;html=1;points=[];align=center;fontSize=12;image=img/lib/azure2/general/File.svg;" parent="1" vertex="1">
          <mxGeometry x="138.56" y="290" width="21.44" height="26.42" as="geometry" />
        </mxCell>
        <mxCell id="qqAcoclm-rAN7GL4KuNu-28" value="" style="shape=link;html=1;rounded=0;" parent="1" edge="1">
          <mxGeometry width="100" relative="1" as="geometry">
            <mxPoint x="80.29" y="400" as="sourcePoint" />
            <mxPoint x="180.29" y="400" as="targetPoint" />
            <Array as="points">
              <mxPoint x="140.29" y="400" />
            </Array>
          </mxGeometry>
        </mxCell>
        <mxCell id="qqAcoclm-rAN7GL4KuNu-30" value="&lt;b&gt;Object Type: &lt;/b&gt;CSV Folder" style="text;html=1;align=center;verticalAlign=middle;whiteSpace=wrap;rounded=0;" parent="1" vertex="1">
          <mxGeometry x="74.57000000000001" y="430" width="111.44" height="30" as="geometry" />
        </mxCell>
        <mxCell id="qqAcoclm-rAN7GL4KuNu-32" value="&lt;b&gt;Interface: &lt;/b&gt;File in Folder" style="text;html=1;align=center;verticalAlign=middle;whiteSpace=wrap;rounded=0;" parent="1" vertex="1">
          <mxGeometry x="74.27999999999999" y="490" width="111.44" height="30" as="geometry" />
        </mxCell>
        <mxCell id="qqAcoclm-rAN7GL4KuNu-34" value="" style="html=1;verticalLabelPosition=bottom;align=center;labelBackgroundColor=#ffffff;verticalAlign=top;strokeWidth=2;strokeColor=#36393d;shadow=0;dashed=0;shape=mxgraph.ios7.icons.data;fillColor=#ffcc99;" parent="1" vertex="1">
          <mxGeometry x="306.5" y="247.31999999999996" width="57" height="69.1" as="geometry" />
        </mxCell>
        <mxCell id="qqAcoclm-rAN7GL4KuNu-35" value="" style="html=1;verticalLabelPosition=bottom;align=center;labelBackgroundColor=#ffffff;verticalAlign=top;strokeWidth=2;strokeColor=#d6b656;shadow=0;dashed=0;shape=mxgraph.ios7.icons.data;fillColor=#fff2cc;gradientColor=#ffd966;" parent="1" vertex="1">
          <mxGeometry x="596.5" y="247.32" width="57" height="69.1" as="geometry" />
        </mxCell>
        <mxCell id="qqAcoclm-rAN7GL4KuNu-36" value="" style="html=1;verticalLabelPosition=bottom;align=center;labelBackgroundColor=#ffffff;verticalAlign=top;strokeWidth=2;strokeColor=#666666;shadow=0;dashed=0;shape=mxgraph.ios7.icons.data;fillColor=#f5f5f5;gradientColor=#b3b3b3;" parent="1" vertex="1">
          <mxGeometry x="456.5" y="247.32" width="57" height="69.1" as="geometry" />
        </mxCell>
        <mxCell id="qqAcoclm-rAN7GL4KuNu-39" value="" style="shape=singleArrow;whiteSpace=wrap;html=1;arrowWidth=0.3066660563151042;arrowSize=0.3239996337890625;fillColor=#dae8fc;gradientColor=#7ea6e0;strokeColor=#6c8ebf;" parent="1" vertex="1">
          <mxGeometry x="206.5" y="280" width="73.5" height="36.42" as="geometry" />
        </mxCell>
        <mxCell id="qqAcoclm-rAN7GL4KuNu-40" value="" style="shape=singleArrow;whiteSpace=wrap;html=1;arrowWidth=0.3066660563151042;arrowSize=0.3239996337890625;fillColor=#dae8fc;gradientColor=#7ea6e0;strokeColor=#6c8ebf;" parent="1" vertex="1">
          <mxGeometry x="373" y="280" width="67" height="36.42" as="geometry" />
        </mxCell>
        <mxCell id="qqAcoclm-rAN7GL4KuNu-41" value="" style="shape=singleArrow;whiteSpace=wrap;html=1;arrowWidth=0.3066660563151042;arrowSize=0.3239996337890625;fillColor=#dae8fc;gradientColor=#7ea6e0;strokeColor=#6c8ebf;" parent="1" vertex="1">
          <mxGeometry x="519.5" y="280" width="70.5" height="34.63" as="geometry" />
        </mxCell>
        <mxCell id="qqAcoclm-rAN7GL4KuNu-42" value="" style="shape=singleArrow;whiteSpace=wrap;html=1;arrowWidth=0.3066660563151042;arrowSize=0.3239996337890625;fillColor=#dae8fc;gradientColor=#7ea6e0;strokeColor=#6c8ebf;" parent="1" vertex="1">
          <mxGeometry x="680" y="275.37" width="70.5" height="34.63" as="geometry" />
        </mxCell>
        <mxCell id="qqAcoclm-rAN7GL4KuNu-43" value="&lt;b&gt;Raw Data&lt;/b&gt;&lt;span style=&quot;color: rgba(0, 0, 0, 0); font-family: monospace; font-size: 0px; text-align: start; text-wrap-mode: nowrap;&quot;&gt;%3CmxGraphModel%3E%3Croot%3E%3CmxCell%20id%3D%220%22%2F%3E%3CmxCell%20id%3D%221%22%20parent%3D%220%22%2F%3E%3CmxCell%20id%3D%222%22%20value%3D%22%26lt%3Bb%26gt%3BCRM%26lt%3B%2Fb%26gt%3B%22%20style%3D%22text%3Bhtml%3D1%3Balign%3Dcenter%3BverticalAlign%3Dmiddle%3BwhiteSpace%3Dwrap%3Brounded%3D0%3B%22%20vertex%3D%221%22%20parent%3D%221%22%3E%3CmxGeometry%20x%3D%22100.14%22%20y%3D%22310%22%20width%3D%2260%22%20height%3D%2230%22%20as%3D%22geometry%22%2F%3E%3C%2FmxCell%3E%3C%2Froot%3E%3C%2FmxGraphModel%3E&lt;/span&gt;" style="text;html=1;align=center;verticalAlign=middle;whiteSpace=wrap;rounded=0;" parent="1" vertex="1">
          <mxGeometry x="303.5" y="320" width="60" height="30" as="geometry" />
        </mxCell>
        <mxCell id="qqAcoclm-rAN7GL4KuNu-44" value="&lt;div&gt;&lt;br&gt;&lt;/div&gt;&lt;div&gt;&lt;b&gt;Cleaned,&lt;/b&gt;&lt;/div&gt;&lt;div&gt;&lt;b&gt;standardized&lt;/b&gt;&lt;/div&gt;&lt;div&gt;&lt;b&gt;&amp;nbsp;Data&lt;/b&gt;&lt;/div&gt;" style="text;html=1;align=center;verticalAlign=middle;whiteSpace=wrap;rounded=0;" parent="1" vertex="1">
          <mxGeometry x="442.5" y="320" width="85" height="40" as="geometry" />
        </mxCell>
        <mxCell id="qqAcoclm-rAN7GL4KuNu-46" value="&lt;b&gt;Business Ready Data&lt;/b&gt;" style="text;html=1;align=center;verticalAlign=middle;whiteSpace=wrap;rounded=0;" parent="1" vertex="1">
          <mxGeometry x="580" y="330" width="85" height="40" as="geometry" />
        </mxCell>
        <mxCell id="qqAcoclm-rAN7GL4KuNu-47" value="&lt;b&gt;Object Type: &lt;/b&gt;Table" style="text;html=1;align=center;verticalAlign=middle;whiteSpace=wrap;rounded=0;" parent="1" vertex="1">
          <mxGeometry x="277.78" y="390" width="111.44" height="30" as="geometry" />
        </mxCell>
        <mxCell id="qqAcoclm-rAN7GL4KuNu-49" value="" style="shape=link;html=1;rounded=0;" parent="1" edge="1">
          <mxGeometry width="100" relative="1" as="geometry">
            <mxPoint x="285" y="380" as="sourcePoint" />
            <mxPoint x="385" y="380" as="targetPoint" />
            <Array as="points">
              <mxPoint x="345" y="380" />
            </Array>
          </mxGeometry>
        </mxCell>
        <mxCell id="qqAcoclm-rAN7GL4KuNu-50" value="" style="shape=link;html=1;rounded=0;" parent="1" edge="1">
          <mxGeometry width="100" relative="1" as="geometry">
            <mxPoint x="435" y="379" as="sourcePoint" />
            <mxPoint x="535" y="379" as="targetPoint" />
            <Array as="points">
              <mxPoint x="495" y="379" />
            </Array>
          </mxGeometry>
        </mxCell>
        <mxCell id="qqAcoclm-rAN7GL4KuNu-51" value="" style="shape=link;html=1;rounded=0;" parent="1" edge="1">
          <mxGeometry width="100" relative="1" as="geometry">
            <mxPoint x="575" y="380" as="sourcePoint" />
            <mxPoint x="675" y="380" as="targetPoint" />
            <Array as="points">
              <mxPoint x="635" y="380" />
            </Array>
          </mxGeometry>
        </mxCell>
        <mxCell id="qqAcoclm-rAN7GL4KuNu-52" value="&lt;div style=&quot;text-align: justify;&quot;&gt;&lt;b style=&quot;background-color: transparent; color: light-dark(rgb(0, 0, 0), rgb(255, 255, 255));&quot;&gt;LOAD:&lt;/b&gt;&lt;/div&gt;&lt;div&gt;&lt;ul&gt;&lt;li style=&quot;text-align: left;&quot;&gt; Truncate &amp;amp; insert&lt;/li&gt;&lt;li style=&quot;text-align: left;&quot;&gt;Full Load&lt;/li&gt;&lt;li style=&quot;text-align: left;&quot;&gt;Batch Processing&lt;/li&gt;&lt;/ul&gt;&lt;/div&gt;" style="text;html=1;align=right;verticalAlign=middle;whiteSpace=wrap;rounded=0;" parent="1" vertex="1">
          <mxGeometry x="285" y="430" width="100" height="90" as="geometry" />
        </mxCell>
        <mxCell id="qqAcoclm-rAN7GL4KuNu-53" value="&lt;div style=&quot;text-align: justify;&quot;&gt;&lt;b&gt;No &lt;/b&gt;Transformation&lt;/div&gt;&lt;div style=&quot;text-align: justify;&quot;&gt;&lt;br&gt;&lt;/div&gt;&lt;div style=&quot;text-align: left;&quot;&gt;&lt;b&gt;Data Model: &lt;/b&gt;None as-is&lt;/div&gt;" style="text;html=1;align=right;verticalAlign=middle;whiteSpace=wrap;rounded=0;" parent="1" vertex="1">
          <mxGeometry x="297" y="550" width="93" height="30" as="geometry" />
        </mxCell>
        <mxCell id="qqAcoclm-rAN7GL4KuNu-54" value="&lt;b&gt;Object Type: &lt;/b&gt;Table" style="text;html=1;align=center;verticalAlign=middle;whiteSpace=wrap;rounded=0;" parent="1" vertex="1">
          <mxGeometry x="429.28" y="390" width="111.44" height="30" as="geometry" />
        </mxCell>
        <mxCell id="qqAcoclm-rAN7GL4KuNu-55" value="&lt;b&gt;Object Type: &lt;/b&gt;Table" style="text;html=1;align=center;verticalAlign=middle;whiteSpace=wrap;rounded=0;" parent="1" vertex="1">
          <mxGeometry x="568.56" y="390" width="111.44" height="30" as="geometry" />
        </mxCell>
        <mxCell id="qqAcoclm-rAN7GL4KuNu-56" value="&lt;div style=&quot;text-align: justify;&quot;&gt;&lt;b style=&quot;background-color: transparent; color: light-dark(rgb(0, 0, 0), rgb(255, 255, 255));&quot;&gt;LOAD:&lt;/b&gt;&lt;/div&gt;&lt;div&gt;&lt;ul&gt;&lt;li style=&quot;text-align: left;&quot;&gt; Truncate &amp;amp; insert&lt;/li&gt;&lt;li style=&quot;text-align: left;&quot;&gt;Full Load&lt;/li&gt;&lt;li style=&quot;text-align: left;&quot;&gt;Batch Processing&lt;/li&gt;&lt;/ul&gt;&lt;/div&gt;" style="text;html=1;align=right;verticalAlign=middle;whiteSpace=wrap;rounded=0;" parent="1" vertex="1">
          <mxGeometry x="575" y="430" width="100" height="90" as="geometry" />
        </mxCell>
        <mxCell id="qqAcoclm-rAN7GL4KuNu-57" value="&lt;div style=&quot;text-align: justify;&quot;&gt;&lt;b style=&quot;background-color: transparent; color: light-dark(rgb(0, 0, 0), rgb(255, 255, 255));&quot;&gt;LOAD:&lt;/b&gt;&lt;/div&gt;&lt;div&gt;&lt;ul&gt;&lt;li style=&quot;text-align: left;&quot;&gt; Truncate &amp;amp; insert&lt;/li&gt;&lt;li style=&quot;text-align: left;&quot;&gt;Full Load&lt;/li&gt;&lt;li style=&quot;text-align: left;&quot;&gt;Batch Processing&lt;/li&gt;&lt;/ul&gt;&lt;/div&gt;" style="text;html=1;align=right;verticalAlign=middle;whiteSpace=wrap;rounded=0;" parent="1" vertex="1">
          <mxGeometry x="435" y="430" width="100" height="90" as="geometry" />
        </mxCell>
        <mxCell id="qqAcoclm-rAN7GL4KuNu-58" value="&lt;div style=&quot;&quot;&gt;&lt;b&gt;Transformation:&lt;/b&gt;&lt;/div&gt;&lt;div style=&quot;&quot;&gt;&lt;ul&gt;&lt;li&gt;Standardization&lt;/li&gt;&lt;li&gt;Cleansing&lt;/li&gt;&lt;li&gt;Columns&lt;/li&gt;&lt;li&gt;Normalization&lt;/li&gt;&lt;li&gt;Enrichment&lt;/li&gt;&lt;/ul&gt;&lt;/div&gt;&lt;div style=&quot;&quot;&gt;&lt;b&gt;Data Model:&lt;/b&gt;&lt;/div&gt;&lt;div style=&quot;&quot;&gt;&lt;b&gt;&lt;/b&gt;None as-is&lt;/div&gt;" style="text;html=1;align=center;verticalAlign=middle;whiteSpace=wrap;rounded=0;" parent="1" vertex="1">
          <mxGeometry x="425" y="500" width="120" height="210" as="geometry" />
        </mxCell>
        <mxCell id="qqAcoclm-rAN7GL4KuNu-59" value="&lt;div style=&quot;text-align: justify;&quot;&gt;&lt;b&gt;Transformation:&lt;/b&gt;&lt;/div&gt;&lt;div style=&quot;text-align: justify;&quot;&gt;&lt;ul&gt;&lt;li&gt;Data Integration&lt;/li&gt;&lt;li&gt;Aggregation&lt;/li&gt;&lt;li&gt;Business Logic&lt;/li&gt;&lt;/ul&gt;&lt;/div&gt;&lt;div style=&quot;text-align: justify;&quot;&gt;&lt;br&gt;&lt;/div&gt;&lt;div style=&quot;text-align: left;&quot;&gt;&lt;b&gt;Data Model:&lt;/b&gt;&lt;/div&gt;&lt;div style=&quot;text-align: left;&quot;&gt;&lt;b&gt;&lt;br&gt;&lt;/b&gt;&lt;/div&gt;&lt;div style=&quot;&quot;&gt;&lt;ul&gt;&lt;li style=&quot;text-align: justify;&quot;&gt;Star Schema&lt;/li&gt;&lt;li style=&quot;text-align: justify;&quot;&gt;Flat Table&lt;/li&gt;&lt;li style=&quot;text-align: justify;&quot;&gt;Aggregated Table&lt;/li&gt;&lt;/ul&gt;&lt;/div&gt;" style="text;html=1;align=right;verticalAlign=middle;whiteSpace=wrap;rounded=0;" parent="1" vertex="1">
          <mxGeometry x="587" y="640" width="93" height="30" as="geometry" />
        </mxCell>
        <mxCell id="qqAcoclm-rAN7GL4KuNu-63" value="" style="image;aspect=fixed;html=1;points=[];align=center;fontSize=12;image=img/lib/azure2/analytics/Power_BI_Embedded.svg;" parent="1" vertex="1">
          <mxGeometry x="789.5" y="246.63" width="51" height="68" as="geometry" />
        </mxCell>
        <mxCell id="qqAcoclm-rAN7GL4KuNu-64" value="&lt;b&gt;Reporting Tools&lt;/b&gt;&lt;div&gt;&lt;b&gt;&lt;br&gt;&lt;/b&gt;&lt;/div&gt;" style="text;html=1;align=center;verticalAlign=middle;whiteSpace=wrap;rounded=0;" parent="1" vertex="1">
          <mxGeometry x="785" y="330" width="60" height="30" as="geometry" />
        </mxCell>
        <mxCell id="qqAcoclm-rAN7GL4KuNu-66" value="" style="html=1;verticalLabelPosition=bottom;align=center;labelBackgroundColor=#ffffff;verticalAlign=top;strokeWidth=2;strokeColor=#0080F0;shadow=0;dashed=0;shape=mxgraph.ios7.icons.looking_glass;" parent="1" vertex="1">
          <mxGeometry x="800" y="430" width="50" height="50" as="geometry" />
        </mxCell>
        <mxCell id="qqAcoclm-rAN7GL4KuNu-67" value="&lt;div&gt;&lt;b&gt;Ad-Hoc&lt;/b&gt;&lt;/div&gt;&lt;div&gt;&lt;b&gt;SQL Queries&lt;/b&gt;&lt;/div&gt;" style="text;html=1;align=center;verticalAlign=middle;whiteSpace=wrap;rounded=0;" parent="1" vertex="1">
          <mxGeometry x="795" y="500" width="60" height="30" as="geometry" />
        </mxCell>
        <mxCell id="qqAcoclm-rAN7GL4KuNu-68" value="" style="sketch=0;points=[[0,0,0],[0.25,0,0],[0.5,0,0],[0.75,0,0],[1,0,0],[0,1,0],[0.25,1,0],[0.5,1,0],[0.75,1,0],[1,1,0],[0,0.25,0],[0,0.5,0],[0,0.75,0],[1,0.25,0],[1,0.5,0],[1,0.75,0]];outlineConnect=0;fontColor=#232F3E;fillColor=#01A88D;strokeColor=#ffffff;dashed=0;verticalLabelPosition=bottom;verticalAlign=top;align=center;html=1;fontSize=12;fontStyle=0;aspect=fixed;shape=mxgraph.aws4.resourceIcon;resIcon=mxgraph.aws4.machine_learning;" parent="1" vertex="1">
          <mxGeometry x="787" y="600" width="78" height="78" as="geometry" />
        </mxCell>
        <mxCell id="qqAcoclm-rAN7GL4KuNu-69" value="&lt;b&gt;Machine Learning&lt;/b&gt;" style="text;html=1;align=center;verticalAlign=middle;whiteSpace=wrap;rounded=0;" parent="1" vertex="1">
          <mxGeometry x="795" y="700" width="60" height="30" as="geometry" />
        </mxCell>
      </root>
    </mxGraphModel>
  </diagram>
</mxfile>
